<svg width="32" height="32" viewBox="0 0 32 32" fill="none" xmlns="http://www.w3.org/2000/svg">
<path d="M9.5 13.0379H16V4.72925H10.572L9.5 13.0379Z" stroke="black" stroke-width="1.8" stroke-linecap="round" stroke-linejoin="round"/>
<path d="M10.572 4.72925H6.09467C5.79678 4.72933 5.5075 4.82916 5.27297 5.01283C5.03843 5.19649 4.87216 5.4534 4.80067 5.74258L3 13.0379H9.5M16 13.0379C16 13.8999 15.6576 14.7265 15.0481 15.336C14.4386 15.9455 13.612 16.2879 12.75 16.2879C11.888 16.2879 11.0614 15.9455 10.4519 15.336C9.84241 14.7265 9.5 13.8999 9.5 13.0379M9.5 13.0379C9.5 13.8999 9.15759 14.7265 8.5481 15.336C7.9386 15.9455 7.11195 16.2879 6.25 16.2879C5.38805 16.2879 4.5614 15.9455 3.9519 15.336C3.34241 14.7265 3 13.8999 3 13.0379M21.428 4.72925H25.9053C26.2032 4.72933 26.4925 4.82916 26.727 5.01283C26.9616 5.19649 27.1278 5.4534 27.1993 5.74258L29 13.0379H22.5M16 13.0379C16 13.8999 16.3424 14.7265 16.9519 15.336C17.5614 15.9455 18.388 16.2879 19.25 16.2879C20.112 16.2879 20.9386 15.9455 21.5481 15.336C22.1576 14.7265 22.5 13.8999 22.5 13.0379M22.5 13.0379C22.5 13.8999 22.8424 14.7265 23.4519 15.336C24.0614 15.9455 24.888 16.2879 25.75 16.2879C26.612 16.2879 27.4386 15.9455 28.0481 15.336C28.6576 14.7265 29 13.8999 29 13.0379M22.5 13.0379H16V4.72925H21.428L22.5 13.0379V13.0379Z" stroke="black" stroke-width="1.8" stroke-linecap="round" stroke-linejoin="round"/>
<path d="M4.88281 15.9844V25.9377C4.88281 26.2913 5.02329 26.6305 5.27334 26.8805C5.52339 27.1306 5.86252 27.271 6.21615 27.271H25.7828C26.1364 27.271 26.4756 27.1306 26.7256 26.8805C26.9757 26.6305 27.1161 26.2913 27.1161 25.9377V15.9844" stroke="black" stroke-width="1.8" stroke-linecap="round" stroke-linejoin="round"/>
<path d="M22.3335 22.3794H24.9709C24.9793 22.7274 24.919 23.0738 24.7936 23.3986C24.6682 23.7234 24.48 24.0203 24.2398 24.2724C23.9996 24.5245 23.7121 24.7268 23.3937 24.8678C23.0753 25.0088 22.7323 25.0856 22.3842 25.094L22.3329 25.0947C21.6126 25.0947 20.9219 24.8086 20.4126 24.2993C19.9033 23.79 19.6172 23.0993 19.6172 22.379C19.6172 21.6588 19.9033 20.968 20.4126 20.4588C20.9219 19.9495 21.6126 19.6634 22.3329 19.6634C22.8054 19.6614 23.2701 19.7847 23.6795 20.0207" stroke="black" stroke-width="1.8" stroke-linecap="round" stroke-linejoin="round"/>
</svg>
